<svg xmlns="http://www.w3.org/2000/svg" viewBox="0 0 64 64" role="img" aria-label="BSDI">
  <defs>
    <linearGradient id="bg" x1="10" x2="54" y1="8" y2="58" gradientUnits="userSpaceOnUse">
      <stop stop-color="#0f3f2e"/>
      <stop offset="0.52" stop-color="#0b6b47"/>
      <stop offset="1" stop-color="#10b981"/>
    </linearGradient>
    <linearGradient id="shine" x1="16" x2="48" y1="12" y2="54" gradientUnits="userSpaceOnUse">
      <stop stop-color="#ffffff" stop-opacity="0.55"/>
      <stop offset="0.42" stop-color="#ffffff" stop-opacity="0.12"/>
      <stop offset="1" stop-color="#ffffff" stop-opacity="0"/>
    </linearGradient>
    <linearGradient id="gold" x1="18" x2="47" y1="14" y2="50" gradientUnits="userSpaceOnUse">
      <stop stop-color="#f7e7a6"/>
      <stop offset="1" stop-color="#c99d35"/>
    </linearGradient>
    <filter id="shadow" x="-20%" y="-20%" width="140%" height="140%">
      <feDropShadow dx="0" dy="4" stdDeviation="4" flood-color="#064e3b" flood-opacity="0.25"/>
    </filter>
  </defs>

  <rect width="64" height="64" rx="16" fill="#f8fbf7"/>
  <circle cx="32" cy="32" r="26" fill="url(#bg)" filter="url(#shadow)"/>
  <circle cx="32" cy="32" r="22.5" fill="none" stroke="url(#gold)" stroke-width="2.5"/>
  <path d="M16 18c4.7-5.5 13.8-8.5 23.3-5.5 7.4 2.3 11.6 7.7 13.1 12.6-8.3-4.5-18.7-5.8-30.7-2.2-2.1.6-4.1-3-5.7-4.9Z" fill="url(#shine)"/>

  <path
    d="M32 17.4 45.2 23v9.7c0 8.1-5.1 13.6-13.2 17.2-8.1-3.6-13.2-9.1-13.2-17.2V23L32 17.4Z"
    fill="#083525"
    fill-opacity="0.7"
    stroke="url(#gold)"
    stroke-width="2"
    stroke-linejoin="round"
  />
  <path
    d="M25.2 32.7 30 37.5l9.9-11"
    fill="none"
    stroke="#f7e7a6"
    stroke-width="4"
    stroke-linecap="round"
    stroke-linejoin="round"
  />
  <path
    d="M24 46h16"
    fill="none"
    stroke="#f7e7a6"
    stroke-width="2.2"
    stroke-linecap="round"
    opacity="0.86"
  />
</svg>
